<?xml version="1.0" standalone="no"?><!DOCTYPE svg PUBLIC "-//W3C//DTD SVG 1.1//EN" "http://www.w3.org/Graphics/SVG/1.1/DTD/svg11.dtd"><svg t="1540217754734" class="icon" style="" viewBox="0 0 1024 1024" version="1.1" xmlns="http://www.w3.org/2000/svg" p-id="2236" xmlns:xlink="http://www.w3.org/1999/xlink" width="48" height="48"><defs><style type="text/css"></style></defs><path d="M917.333333 896H106.666667c-59.733333 0-106.666667-46.933333-106.666667-106.666667v-183.466666h42.666667c51.2 0 91.733333-42.666667 91.733333-93.866667 0-51.2-40.533333-91.733333-91.733333-93.866667H0V234.666667c0-59.733333 46.933333-106.666667 106.666667-106.666667h810.666666c59.733333 0 106.666667 46.933333 106.666667 106.666667v183.466666h-42.666667c-51.2 0-93.866667 42.666667-93.866666 93.866667 0 51.2 42.666667 93.866667 93.866666 93.866667h42.666667V789.333333c0 59.733333-46.933333 106.666667-106.666667 106.666667zM85.333333 684.8V789.333333c0 10.666667 10.666667 21.333333 21.333334 21.333334h810.666666c10.666667 0 21.333333-10.666667 21.333334-21.333334v-104.533333c-76.8-19.2-136.533333-89.6-136.533334-172.8 0-83.2 57.6-153.6 136.533334-172.8V234.666667c0-10.666667-10.666667-21.333333-21.333334-21.333334H106.666667c-10.666667 0-21.333333 10.666667-21.333334 21.333334v104.533333c76.8 19.2 134.4 89.6 134.4 172.8S162.133333 665.6 85.333333 684.8z" p-id="2237" fill="#ffffff"></path><path d="M337.066667 324.266667h76.8v142.933333h-76.8zM337.066667 140.8h76.8V256h-76.8zM337.066667 533.333333h76.8v142.933334h-76.8zM337.066667 731.733333h76.8V853.333333h-76.8z" p-id="2238" fill="#ffffff"></path></svg>